HIERARCHY
ROOT Hips
{
	OFFSET -0.179506 -22.333345 2.821913
	CHANNELS 6 Xposition Yposition Zposition Zrotation Yrotation Xrotation 
	JOINT LeftUpLeg
	{
		OFFSET 6.951974 -9.140623 -0.681533
		CHANNELS 3 Zrotation Yrotation Xrotation
		JOINT LeftLeg
		{
			OFFSET 3.427654 -37.519855 -0.449580
			CHANNELS 3 Zrotation Yrotation Xrotation
			JOINT LeftFoot
			{
				OFFSET -1.359570 -39.796059 -4.369333
				CHANNELS 3 Zrotation Yrotation Xrotation
				JOINT LeftToe
				{
					OFFSET 2.635814 -5.579078 11.928840
					CHANNELS 3 Zrotation Yrotation Xrotation
					End Site
					{
						OFFSET 0.000000 0.000000 0.000000
					}
				}
			}
		}
	}
	JOINT RightUpLeg
	{
		OFFSET -6.767048 -9.052170 -0.431982
		CHANNELS 3 Zrotation Yrotation Xrotation
		JOINT RightLeg
		{
			OFFSET -3.829005 -38.256897 -0.885003
			CHANNELS 3 Zrotation Yrotation Xrotation
			JOINT RightFoot
			{
				OFFSET 1.577377 -39.841461 -4.231180
				CHANNELS 3 Zrotation Yrotation Xrotation
				JOINT RightToe
				{
					OFFSET -2.537174 -4.814398 12.334795
					CHANNELS 3 Zrotation Yrotation Xrotation
					End Site
					{
						OFFSET 0.000000 0.000000 0.000000
					}
				}
			}
		}
	}
	JOINT Spine
	{
		OFFSET -0.253288 10.896323 -2.669631
		CHANNELS 3 Zrotation Yrotation Xrotation
		JOINT Spine1
		{
			OFFSET 0.548704 13.518043 0.109247
			CHANNELS 3 Zrotation Yrotation Xrotation
			JOINT Spine2
			{
				OFFSET 0.145701 5.292222 2.542457
				CHANNELS 3 Zrotation Yrotation Xrotation
				JOINT Neck
				{
					OFFSET -0.277840 21.387037 -4.285703
					CHANNELS 3 Zrotation Yrotation Xrotation
					JOINT Head
					{
						OFFSET 0.515184 6.496960 5.134897
						CHANNELS 3 Zrotation Yrotation Xrotation
						End Site
						{
							OFFSET 0.000000 0.000000 0.000000
						}
					}
				}
				JOINT LeftShoulder
				{
					OFFSET 7.884473 12.174932 -3.408961
					CHANNELS 3 Zrotation Yrotation Xrotation
					JOINT LeftArm
					{
						OFFSET 9.097692 3.046888 -0.886815
						CHANNELS 3 Zrotation Yrotation Xrotation
						JOINT LeftForeArm
						{
							OFFSET 25.961220 -1.277207 -2.745643
							CHANNELS 3 Zrotation Yrotation Xrotation
							JOINT LeftHand
							{
								OFFSET 24.923361 0.898606 -0.117091
								CHANNELS 3 Zrotation Yrotation Xrotation
								End Site
								{
									OFFSET 0.000000 0.000000 0.000000
								}
							}
						}
					}
				}
				JOINT RightShoulder
				{
					OFFSET -8.175920 11.883285 -3.861528
					CHANNELS 3 Zrotation Yrotation Xrotation
					JOINT RightArm
					{
						OFFSET -9.601238 3.255117 -0.914307
						CHANNELS 3 Zrotation Yrotation Xrotation
						JOINT RightForeArm
						{
							OFFSET -25.374195 -1.332924 -2.140099
							CHANNELS 3 Zrotation Yrotation Xrotation
							JOINT RightHand
							{
								OFFSET -25.529810 0.777228 -0.555919
								CHANNELS 3 Zrotation Yrotation Xrotation
								End Site
								{
									OFFSET 0.000000 0.000000 0.000000
								}
							}
						}
					}
				}
			}
		}
	}
}
MOTION
Frames: 7
Frame Time: 0.033333
-0.179506 105.301559 2.821913 171.800314 -70.683701 178.620277 6.232601 2.714238 8.764056 1.357452 -3.219234 2.331747 0.279263 15.374695 -9.636389 1.271584 -0.923653 -0.705122 0.488661 -3.428589 9.441244 -0.738160 1.488811 -1.683378 -0.640043 -11.845456 -9.271293 1.555491 1.014813 -1.151438 0.350127 1.327648 4.845857 -0.044133 -1.596307 -2.464945 0.542560 0.475715 4.672373 -0.427820 1.722757 2.488043 2.420269 4.096149 -6.091720 -12.175088 -0.830962 -1.124137 -31.328922 -3.694507 8.256592 -2.099704 -49.411290 4.991019 -9.047518 -12.523686 -16.257703 12.975369 4.942638 0.279008 43.011284 4.527224 13.237570 4.101327 31.581083 8.995165 12.293627 4.156374 -4.528610 
-0.181381 105.326515 2.834658 171.837961 -70.331458 178.639137 6.256508 2.665946 8.661722 1.170975 -3.246906 2.552924 0.368059 15.641899 -9.517199 1.231698 -0.898096 -0.695886 0.350402 -3.669116 9.504980 -0.640362 1.450420 -2.018733 -0.525948 -11.392702 -9.037411 1.550099 0.996912 -1.120368 0.330278 1.498020 4.705335 -0.056560 -1.590648 -2.290643 0.552943 0.565823 4.627881 -0.434805 2.024314 2.267674 2.276049 4.050595 -6.068263 -12.110086 -1.005463 -1.126790 -31.601406 -3.727687 8.647020 -2.444524 -48.983589 5.823722 -9.733094 -12.661389 -15.570719 12.976093 5.320518 0.351408 43.246589 4.683124 13.549329 4.543385 31.103972 10.104850 12.901521 4.170965 -4.023434 
-0.362952 105.345108 2.913851 172.095462 -70.116383 178.537267 6.285030 2.643067 8.550105 1.002682 -3.371013 2.751875 0.495101 15.941339 -9.598878 1.196379 -0.869811 -0.695380 0.218909 -3.842840 9.415277 -0.507585 1.551534 -2.006177 -0.430981 -11.154770 -8.994433 1.546673 0.979694 -1.092959 0.335987 1.604652 4.632051 -0.070015 -1.590956 -2.165871 0.554338 0.650219 4.628601 -0.418153 2.207619 2.115082 2.158736 4.087732 -6.149184 -12.183939 -1.047179 -1.125128 -31.784994 -3.620504 8.855636 -2.392443 -48.947658 5.798859 -10.073173 -12.727198 -15.554278 13.035760 5.491957 0.404448 43.237274 4.707160 13.687348 4.819784 31.139433 10.675354 13.350996 4.180910 -3.754672 
-0.467925 105.355812 3.010654 172.106112 -69.980836 178.551647 6.255298 2.633270 8.505257 0.831108 -3.485670 2.928072 0.622691 16.131360 -9.656094 1.172308 -0.848337 -0.680396 0.046032 -3.994913 9.372850 -0.432324 1.541215 -1.921315 -0.296648 -10.926642 -9.048754 1.539807 0.967667 -1.078570 0.326403 1.674122 4.609045 -0.106932 -1.598002 -2.103299 0.554178 0.688526 4.662367 -0.358031 2.341850 1.972037 2.096653 4.169332 -6.290014 -12.233163 -1.058389 -1.164579 -31.979028 -3.522729 8.926455 -2.291611 -48.746769 5.625307 -10.148281 -12.703599 -15.539320 13.034176 5.565180 0.395533 43.240168 4.744542 13.678699 4.904196 31.190541 10.769118 13.451723 4.172842 -3.695941 
-0.540670 105.361298 3.010636 171.949627 -69.821711 178.704854 6.168239 2.590773 8.539178 0.771532 -3.621371 3.000964 0.705511 16.356643 -9.624787 1.160538 -0.834884 -0.673889 -0.081748 -4.064869 9.329284 -0.400815 1.549535 -1.796189 -0.249396 -10.782760 -9.153675 1.539977 0.963771 -1.073934 0.340693 1.716783 4.591652 -0.088658 -1.579125 -2.026786 0.535474 0.715536 4.651192 -0.298168 2.415800 1.920117 2.058542 4.218731 -6.489267 -12.286488 -0.987487 -1.176198 -32.189242 -3.378135 8.964845 -2.217979 -48.563054 5.349717 -10.158605 -12.765078 -15.805250 13.033096 5.567104 0.394843 43.240012 4.771815 13.625368 4.771876 31.323082 10.483204 13.508602 4.199354 -3.822508 
-0.578449 105.364578 3.040190 171.738000 -69.738143 178.896088 6.029765 2.525566 8.610901 0.778465 -3.797374 2.951316 0.763602 16.525467 -9.600950 1.152873 -0.832083 -0.655772 -0.180301 -4.011140 9.248242 -0.444319 1.631786 -1.603679 -0.272613 -10.770965 -9.241313 1.526358 0.951198 -1.053096 0.350334 1.744425 4.591183 -0.090343 -1.577759 -1.978332 0.528097 0.747333 4.627305 -0.235785 2.469917 1.892359 2.054289 4.322646 -6.681923 -12.347934 -0.926766 -1.199174 -32.554404 -3.230013 8.953967 -2.046020 -48.221127 4.905243 -10.092857 -12.687373 -15.803506 12.962987 5.531040 0.399135 43.309971 4.821638 13.533256 4.545699 31.246922 9.995367 13.367820 4.205765 -3.935637 
-0.584367 105.367966 3.036232 171.423045 -69.606951 179.216254 5.881907 2.475773 8.657150 0.768602 -3.973302 2.878670 0.802667 16.699094 -9.525899 1.159405 -0.847166 -0.656293 -0.287334 -3.939272 9.191569 -0.500309 1.811276 -1.569854 -0.302387 -10.836520 -9.245106 1.503826 0.959304 -1.059659 0.355747 1.806598 4.627061 -0.085888 -1.554403 -1.900200 0.521524 0.812036 4.610585 -0.241848 2.493317 1.813800 2.048594 4.425070 -6.797099 -12.379213 -0.918497 -1.186547 -32.985163 -3.118160 8.997451 -1.886211 -47.728140 4.565055 -9.990144 -12.675434 -15.883241 12.880146 5.574545 0.427128 43.424359 4.858445 13.484543 4.230823 31.158528 9.378580 13.319914 4.213079 -4.229860 
